# xmcd
# 
# Track frame offsets:
#     150
#     26567
#     60889
#     81123
#     101980
#     125275
#     150689
#     168741
#     186238
#     219960
#     250462
# 
# Disc length: 3834
# 
# Revision: 0
# Processed by: cddbd v1.5.2PL0 Copyright (c) Steve Scherf et al.
# Submitted via: fre:ac v1.0.27
# 
DISCID=910ef80b
DTITLE=Scott Henderson - Tore Down House
DYEAR=1997
DGENRE=Blues
TTITLE0=Dolemite
TTITLE1=Tore Down House
TTITLE2=Meter Maid
TTITLE3=I Hate You
TTITLE4=Gittar School
TTITLE5=Xanax
TTITLE6=Continuum
TTITLE7=You Got Off On Me
TTITLE8=Mocha
TTITLE9=Harpoon
TTITLE10=Same As You
EXTD=
EXTT0=
EXTT1=
EXTT2=
EXTT3=
EXTT4=
EXTT5=
EXTT6=
EXTT7=
EXTT8=
EXTT9=
EXTT10=
PLAYORDER=
